<?xml version="1.0" standalone="no"?>
<!DOCTYPE svg PUBLIC "-//W3C//DTD SVG 20010904//EN"
 "http://www.w3.org/TR/2001/REC-SVG-20010904/DTD/svg10.dtd">
<svg version="1.0" xmlns="http://www.w3.org/2000/svg"
 width="512.000000pt" height="512.000000pt" viewBox="0 0 512.000000 512.000000"
 preserveAspectRatio="xMidYMid meet">

<g transform="translate(0.000000,512.000000) scale(0.100000,-0.100000)"
fill="#000000" stroke="none">
<path d="M255 4736 c-92 -29 -178 -107 -222 -201 l-28 -60 0 -1915 0 -1915 29
-62 c33 -73 107 -147 181 -184 l50 -24 2295 0 2295 0 50 24 c74 37 148 111
181 184 l29 62 0 1915 0 1915 -29 62 c-33 73 -107 147 -181 184 l-50 24 -2280
2 c-1812 1 -2288 -1 -2320 -11z m452 -271 c48 -20 71 -41 94 -87 42 -82 11
-188 -67 -234 -123 -72 -274 13 -274 155 0 127 130 215 247 166z m584 -19 c46
-31 78 -91 79 -148 1 -138 -148 -225 -271 -157 -97 54 -120 196 -46 278 60 65
162 77 238 27z m560 0 c46 -31 78 -91 79 -148 1 -138 -148 -225 -271 -157 -97
54 -120 196 -46 278 60 65 162 77 238 27z m2899 -2161 l0 -1555 -2190 0 -2190
0 0 1555 0 1555 2190 0 2190 0 0 -1555z"/>
<path d="M1100 3135 l0 -126 710 -351 c391 -193 710 -354 710 -358 0 -3 -319
-165 -710 -360 l-710 -355 0 -123 c0 -95 3 -123 13 -119 6 3 383 196 837 429
l825 424 0 104 0 105 -460 235 c-253 129 -630 322 -837 428 l-378 193 0 -126z"/>
<path d="M3130 2315 l0 -115 445 0 445 0 0 115 0 115 -445 0 -445 0 0 -115z"/>
</g>
</svg>
